<svg width="24" height="24" viewBox="0 0 24 24" fill="none" xmlns="http://www.w3.org/2000/svg">
<path d="M14.4999 4H14.5049H14.4999ZM14.4999 4L11.9999 10L16.9999 12.898L9.49995 20L11.9999 14L6.99995 11.1L14.4999 4ZM14.4999 2C13.987 2.00191 13.494 2.19891 13.1209 2.551L5.62395 9.646C5.39808 9.86018 5.22533 10.1241 5.11943 10.4168C5.01353 10.7095 4.97741 11.0229 5.01395 11.332C5.08595 11.958 5.45095 12.514 5.99595 12.83L9.47795 14.851L7.65195 19.232C7.5259 19.5361 7.47674 19.8665 7.5088 20.1941C7.54086 20.5217 7.65316 20.8363 7.83577 21.1102C8.01838 21.3841 8.26566 21.6087 8.55575 21.7642C8.84584 21.9198 9.16979 22.0015 9.49895 22.002C9.99695 22.002 10.4919 21.816 10.8739 21.454L18.3739 14.351C18.5997 14.1369 18.7723 13.8732 18.8782 13.5806C18.9841 13.2881 19.0203 12.975 18.9839 12.666C18.948 12.3572 18.8405 12.061 18.67 11.8009C18.4996 11.5409 18.2708 11.3242 18.0019 11.168L14.5199 9.15L16.3089 4.857C16.4536 4.55201 16.5187 4.21537 16.4982 3.87845C16.4777 3.54152 16.3722 3.21527 16.1916 2.93008C16.011 2.64489 15.7612 2.41005 15.4654 2.24742C15.1696 2.08479 14.8375 1.99968 14.4999 2Z" fill="white"/>
</svg>
