<svg width="36" height="36" viewBox="0 0 36 36" fill="none" xmlns="http://www.w3.org/2000/svg">
<rect width="36" height="36" rx="18" fill="#181818"/>
<path d="M25.562 13C25.6157 12.6935 25.6017 12.379 25.5209 12.0786C25.4402 11.7781 25.2946 11.499 25.0945 11.2607C24.8944 11.0225 24.6445 10.8309 24.3625 10.6995C24.0805 10.5681 23.7731 10.5 23.462 10.5H12.538C12.2269 10.5 11.9195 10.5681 11.6375 10.6995C11.3555 10.8309 11.1056 11.0225 10.9055 11.2607C10.7054 11.499 10.5599 11.7781 10.4791 12.0786C10.3983 12.379 10.3843 12.6935 10.438 13M23.5 10.5C23.528 10.24 23.543 10.111 23.543 10.004C23.5441 9.50969 23.3621 9.0325 23.0321 8.66446C22.7021 8.29643 22.2475 8.06364 21.756 8.011C21.65 8 21.52 8 21.26 8H14.74C14.48 8 14.349 8 14.243 8.011C13.7515 8.06364 13.2969 8.29643 12.9669 8.66446C12.6369 9.0325 12.4549 9.50969 12.456 10.004C12.456 10.111 12.47 10.241 12.499 10.5" stroke="white" stroke-width="1.5"/>
<path d="M21 24H15" stroke="white" stroke-width="1.5" stroke-linecap="round"/>
<path d="M8.38402 19.793C7.93702 16.629 7.71402 15.048 8.66202 14.023C9.61002 13 11.298 13 14.672 13H21.328C24.702 13 26.39 13 27.338 14.024C28.286 15.048 28.062 16.629 27.616 19.793L27.194 22.793C26.844 25.273 26.669 26.514 25.772 27.257C24.875 28 23.552 28 20.905 28H15.095C12.449 28 11.125 28 10.228 27.257C9.33102 26.514 9.15602 25.274 8.80602 22.793L8.38402 19.793Z" stroke="white" stroke-width="1.5"/>
</svg>
