<svg width="54" height="53" viewBox="0 0 54 53" fill="none" xmlns="http://www.w3.org/2000/svg">
<path d="M49.1655 21.8831C48.6513 23.2053 46.8883 26.6577 42.4075 26.6577C42.4075 26.6577 47.1822 27.9799 46.8149 32.2404L44.4643 42.8915C43.2155 48.2538 38.4409 52.0735 33.0052 52.0735H0.611137L2.88827 41.7896L4.28393 35.4724H19.8566L18.4609 41.7896H26.7614C28.1571 41.7896 29.3324 40.8347 29.6262 39.5125L31.0219 33.2688C31.2422 32.3138 30.5811 31.4324 29.6262 31.4324H13.4659L15.6696 21.222H32.5644C33.299 21.222 33.8866 20.7078 34.0336 20.0467L35.723 12.7011C35.87 11.7462 35.2089 10.8647 34.2539 10.8647H25.5861L24.1905 17.1819H8.61783L10.0135 10.8647L12.2906 0.654347H44.8316C49.5327 0.654347 53.0586 4.91479 52.0302 9.54251L51.7364 10.8647H51.663L49.1655 21.8831Z" fill="white"/>
</svg>
