<svg width="54" height="52" viewBox="0 0 54 52" fill="none" xmlns="http://www.w3.org/2000/svg">
<path d="M22.2482 31.4324C21.5871 31.4324 20.9994 31.9465 20.8525 32.6077L18.7958 41.7896H29.3L30.6956 35.4724H46.2683L44.8726 41.7896L42.5955 52H0.872536L3.14967 41.7896L6.52864 26.8781C7.33665 23.5726 10.2749 21.222 13.7273 21.222H31.724C33.1197 21.222 34.295 20.2671 34.5888 18.8714L35.9844 12.7011C36.2048 11.7462 35.4703 10.8647 34.5153 10.8647H26.0679L24.7457 17.1819H8.87923L10.2749 10.8647L12.552 0.654347H45.093C49.7941 0.654347 53.32 4.91479 52.2916 9.54251L51.9978 10.8647H51.9244L49.4269 22.2504C48.1781 27.6127 43.4035 31.4324 37.9677 31.4324H22.2482Z" fill="white"/>
</svg>
